<?xml version="1.0" encoding="UTF-8"?>
<svg version="1.1" xmlns="http://www.w3.org/2000/svg" width="2000" height="2250">
<path d="M0 0 C6.64594783 4.47667146 12.63840755 9.49967509 18.65673828 14.76757812 C27.47862902 22.41732953 37.42867189 29.78687658 49.64428711 29.3293457 C52.13677086 29.04690068 54.55534829 28.57776022 57.01171875 28.0703125 C57.90318604 27.88750732 58.79465332 27.70470215 59.71313477 27.51635742 C60.38787842 27.37560791 61.06262207 27.2348584 61.7578125 27.08984375 C64.45678719 79.93519401 64.45678719 79.93519401 51.8515625 95.05078125 C41.40808764 105.22147879 26.30490356 106.49544132 12.43070984 106.37843323 C11.69832281 106.36769838 10.96593578 106.35696354 10.21135521 106.3459034 C7.84453574 106.31131261 5.47820103 106.29627073 3.11116028 106.28526306 C-1.09629462 106.26266498 -5.30340675 106.22379497 -9.51068115 106.17926025 C-16.96924549 106.10034596 -24.42781989 106.03643921 -31.88671875 106 C-32.6992555 105.99602518 -33.51179226 105.99205036 -34.34895134 105.98795509 C-117.09014463 105.69307345 -196.97992342 125.61414392 -271.5859375 160.83740234 C-274.1434497 162.04328815 -276.70731774 163.23443749 -279.2734375 164.421875 C-304.84939541 176.31129513 -329.53665021 190.19353889 -353.75830078 204.61962891 C-356.74415615 206.38695946 -359.74081143 208.13525288 -362.73828125 209.8828125 C-375.11482621 217.10071871 -387.44608284 224.38178861 -399.6796875 231.83984375 C-411.47275254 239.02889391 -423.32469302 246.10890233 -435.2421875 253.08984375 C-436.2110791 253.65799805 -437.1799707 254.22615234 -438.17822266 254.81152344 C-448.01474117 260.57638785 -457.86058398 266.31993662 -467.78515625 271.93212891 C-488.1565343 283.46635613 -507.71161234 296.81658152 -523.94921875 313.82421875 C-526.57479728 316.41848714 -529.33843854 318.8114897 -532.12573242 321.22949219 C-535.48984096 324.1865238 -538.73783009 327.26314357 -541.9921875 330.33984375 C-548.6917089 336.64692456 -555.44522792 342.88796681 -562.2421875 349.08984375 C-586.6121348 371.04718944 -586.6121348 371.04718944 -610.0546875 393.96484375 C-611.89137812 395.7490575 -613.7618451 397.40086573 -615.70703125 399.0625 C-621.09536924 403.74470248 -626.10734483 408.80528467 -631.14233398 413.85961914 C-632.8014607 415.52410652 -634.46586801 417.18317822 -636.13085938 418.84179688 C-641.21272842 423.92081963 -646.20217238 429.03293056 -650.87084961 434.50024414 C-652.56688 436.46621421 -654.3748549 438.28690193 -656.2421875 440.08984375 C-659.43480062 443.23964405 -662.41380029 446.50203864 -665.3359375 449.90234375 C-667.55164398 452.44495774 -669.83317342 454.92094573 -672.1171875 457.40234375 C-676.56405227 462.28321184 -680.76647651 467.31359899 -684.90966797 472.45263672 C-686.42440354 474.31372443 -687.95890535 476.15741581 -689.49609375 478 C-697.39142152 487.47658952 -704.9906317 497.11139325 -712.2421875 507.08984375 C-712.72896973 507.75951172 -713.21575195 508.42917969 -713.71728516 509.11914062 C-732.9716034 535.73894931 -749.50702653 563.74079886 -764.2421875 593.08984375 C-764.67515137 593.94642578 -765.10811523 594.80300781 -765.55419922 595.68554688 C-781.00448438 626.44594967 -792.09812166 659.7127795 -800.5546875 693.02734375 C-800.84727951 694.16073181 -800.84727951 694.16073181 -801.14578247 695.3170166 C-809.76582111 728.9821156 -813.32522979 763.39361752 -816.96898127 797.86752748 C-817.65939932 804.36987508 -818.36495145 810.87057927 -819.06930542 817.37142944 C-820.24754463 828.25795799 -821.4188301 839.14521419 -822.58349609 850.03320312 C-822.69346669 851.06123065 -822.69346669 851.06123065 -822.80565892 852.1100264 C-823.2517432 856.280546 -823.69762214 860.45108752 -824.14343262 864.62163639 C-824.81586446 870.91217747 -825.48850876 877.20269576 -826.16162109 883.49316406 C-826.23544503 884.18310296 -826.30926896 884.87304187 -826.38532998 885.58388801 C-827.62058176 897.12559275 -828.86479112 908.66631483 -830.1149987 920.20640886 C-830.94854097 927.90650412 -831.77127741 935.60765041 -832.58541512 943.30982041 C-833.09425537 948.10230206 -833.61244715 952.89374016 -834.13307953 957.68495369 C-834.37080053 959.89026693 -834.60471648 962.09599451 -834.8343544 964.30216408 C-836.5749411 980.99554065 -838.80357506 996.53275679 -846.5546875 1011.65234375 C-847.5315101 1013.63007989 -848.50807256 1015.60794453 -849.484375 1017.5859375 C-850.19158691 1018.99721924 -850.19158691 1018.99721924 -850.91308594 1020.43701172 C-860.93403896 1040.43842163 -865.77379552 1056.74184307 -862.42797852 1079.2434082 C-862.22003708 1080.71311877 -862.01332674 1082.18300396 -861.80773926 1083.65304565 C-861.25193144 1087.60234685 -860.67916075 1091.5490133 -860.1030705 1095.49539971 C-859.5017707 1099.6352484 -858.9164365 1103.77735426 -858.32933044 1107.91923523 C-857.21777126 1115.74381573 -856.0920827 1123.56629359 -854.96117204 1131.38809794 C-853.67324716 1140.30080169 -852.40129035 1149.21576157 -851.13060105 1158.13093626 C-848.51875953 1176.45311964 -845.88710224 1194.77240696 -843.2421875 1213.08984375 C-845.75068937 1211.89455333 -847.74593144 1210.7120358 -849.9921875 1209.02734375 C-854.11805894 1206.56768963 -856.44450639 1206.16599742 -861.2421875 1206.08984375 C-865.47222402 1207.78185836 -867.26737616 1210.04148051 -869.2421875 1214.08984375 C-871.53516638 1222.16440508 -870.25628258 1227.87857028 -866.9921875 1235.33984375 C-866.69248047 1236.02530273 -866.39277344 1236.71076172 -866.08398438 1237.41699219 C-863.67430524 1242.65842801 -861.1391543 1246.82519921 -856.2421875 1250.08984375 C-852.05862857 1250.56345419 -849.80137408 1250.3858837 -846.0546875 1248.40234375 C-843.33681971 1246.16765245 -841.39225447 1243.85421557 -839.2421875 1241.08984375 C-838.5821875 1241.08984375 -837.9221875 1241.08984375 -837.2421875 1241.08984375 C-830.61503146 1254.19726278 -824.7032023 1267.50953873 -819.24609375 1281.13671875 C-818.94454754 1281.88970749 -818.64300133 1282.64269623 -818.33231735 1283.41850281 C-816.46082925 1288.09961353 -814.60005739 1292.78493358 -812.74304199 1297.47180176 C-787.41168537 1362.8212021 -787.41168537 1362.8212021 -747.3515625 1419.765625 C-745.49592093 1421.8102671 -743.67462374 1423.87768524 -741.8671875 1425.96484375 C-738.45332869 1429.88445942 -734.94119998 1433.7115178 -731.42138672 1437.53564453 C-728.58745378 1440.61609015 -725.77898462 1443.71652773 -722.9921875 1446.83984375 C-713.62993738 1457.25723118 -704.04230423 1467.4575458 -694.0234375 1477.24609375 C-691.92653281 1479.39011989 -689.9672399 1481.53968569 -688.01733398 1483.81030273 C-684.5110789 1487.83247142 -680.83674907 1491.64049269 -677.05859375 1495.40625 C-676.39939438 1496.0664061 -675.74019501 1496.72656219 -675.0610199 1497.40672302 C-673.67821915 1498.79019881 -672.29417674 1500.17243458 -670.90893555 1501.5534668 C-668.80988407 1503.64716044 -666.7162281 1505.74614249 -664.62304688 1507.84570312 C-663.26854964 1509.19953946 -661.91374219 1510.5530655 -660.55859375 1511.90625 C-659.94375626 1512.52311172 -659.32891876 1513.13997345 -658.69544983 1513.77552795 C-654.94635355 1517.50484375 -651.06952884 1521.02595575 -647.06993103 1524.48448181 C-644.73826783 1526.53245151 -642.54421814 1528.69141471 -640.3671875 1530.90234375 C-639.10648438 1532.17464844 -639.10648438 1532.17464844 -637.8203125 1533.47265625 C-636.1015625 1535.21744792 -634.3828125 1536.96223958 -632.6640625 1538.70703125 C-628.24769311 1543.16404208 -623.77883991 1547.45494048 -619.015625 1551.5390625 C-616.46025264 1553.77360618 -614.1140175 1556.16086122 -611.7421875 1558.58984375 C-608.01216127 1562.37664948 -604.17984671 1565.96381684 -600.13671875 1569.4140625 C-597.45757204 1571.78386444 -594.97577097 1574.33006087 -592.4921875 1576.90234375 C-590.54147181 1578.79887289 -588.54969738 1580.58455417 -586.49609375 1582.3671875 C-582.2872622 1586.02353088 -578.22469586 1589.81652718 -574.1796875 1593.65234375 C-572.68382972 1595.06535402 -571.18773133 1596.4781096 -569.69140625 1597.890625 C-568.94681152 1598.59396973 -568.2022168 1599.29731445 -567.43505859 1600.02197266 C-559.06033716 1607.91931073 -550.62400928 1615.75084939 -542.1574707 1623.54956055 C-537.9813407 1627.39920123 -533.82824747 1631.27302737 -529.6796875 1635.15234375 C-525.24259472 1639.3011747 -520.79016245 1643.43085308 -516.3046875 1647.52734375 C-509.5931178 1653.66389275 -502.96818663 1659.89138462 -496.34179688 1666.11962891 C-494.21299794 1668.11723442 -492.07980755 1670.11004566 -489.9453125 1672.1015625 C-483.90761158 1677.73878948 -477.88486931 1683.36459636 -472.10073853 1689.26400757 C-470.29482691 1691.03813092 -468.42995012 1692.68676435 -466.50537109 1694.33056641 C-462.33045372 1697.96200766 -458.41767424 1701.80242256 -454.53125 1705.73828125 C-453.83703949 1706.43627838 -453.14282898 1707.13427551 -452.42758179 1707.85342407 C-450.23830881 1710.05478924 -448.05235014 1712.25939894 -445.8671875 1714.46484375 C-442.96639472 1717.39217395 -440.06233836 1720.31620926 -437.15625 1723.23828125 C-436.49170807 1723.91112152 -435.82716614 1724.58396179 -435.14248657 1725.27719116 C-434.5277951 1725.89518585 -433.91310364 1726.51318054 -433.27978516 1727.14990234 C-432.73987946 1727.69504486 -432.19997375 1728.24018738 -431.64370728 1728.80184937 C-429.71886748 1730.570774 -428.68358331 1731.09828776 -426.04711914 1731.04785156 C-419.14766931 1730.39828662 -412.45121451 1729.30420352 -405.6796875 1727.83984375 C-404.71611328 1727.64777344 -403.75253906 1727.45570312 -402.75976562 1727.2578125 C-393.81139168 1725.3390108 -385.22274838 1722.33900846 -379.2421875 1715.08984375 C-378.6853125 1714.16171875 -378.1284375 1713.23359375 -377.5546875 1712.27734375 C-376.905 1711.19453125 -376.905 1711.19453125 -376.2421875 1710.08984375 C-375.5821875 1710.08984375 -374.9221875 1710.08984375 -374.2421875 1710.08984375 C-372.31990104 1718.13387323 -371.47893976 1723.96687016 -375.47265625 1731.37109375 C-380.55667908 1739.54914656 -386.56851389 1744.13343123 -395.2421875 1748.08984375 C-390.56145438 1752.19782894 -385.27629263 1755.06754629 -379.8671875 1758.08984375 C-378.85132568 1758.65872314 -377.83546387 1759.22760254 -376.78881836 1759.8137207 C-373.61232236 1761.58301061 -370.42917821 1763.33953447 -367.2421875 1765.08984375 C-365.7878833 1765.88914307 -365.7878833 1765.88914307 -364.30419922 1766.70458984 C-317.69180996 1792.13316303 -268.11910533 1805.12585219 -215.35336304 1809.18450928 C-138.81806026 1815.12592185 -60.49684234 1825.41211309 13.52197266 1846.50244141 C23.09328402 1849.09012493 30.94048299 1846.92482536 40.3203125 1844.40234375 C68.34552991 1837.17556321 97.14073949 1832.61637272 125.98046875 1830.3203125 C126.75148926 1830.25777786 127.52250977 1830.19524323 128.31689453 1830.1308136 C132.05753497 1829.82979418 135.79772096 1829.54854931 139.54248047 1829.30395508 C151.24678893 1828.4671287 158.41886696 1825.41184022 166.7578125 1817.08984375 C167.8744661 1815.78795089 168.9786856 1814.47529159 170.0703125 1813.15234375 C174.90246419 1807.45174083 181.32648722 1801.7133207 188.7578125 1800.08984375 C188.81316162 1799.3534668 188.86851074 1798.61708984 188.92553711 1797.85839844 C189.17857608 1794.51859998 189.43688583 1791.17922946 189.6953125 1787.83984375 C189.78232422 1786.68097656 189.86933594 1785.52210937 189.95898438 1784.328125 C190.04599609 1783.21308594 190.13300781 1782.09804687 190.22265625 1780.94921875 C190.3012085 1779.92280273 190.37976074 1778.89638672 190.46069336 1777.83886719 C190.71451451 1775.49044802 191.11070421 1773.35590793 191.7578125 1771.08984375 C192.4178125 1771.08984375 193.0778125 1771.08984375 193.7578125 1771.08984375 C195.07884336 1772.81077851 196.1926084 1774.6228243 197.34375 1776.4609375 C199.04927052 1778.42558407 200.22802592 1778.7076845 202.7578125 1779.08984375 C203.53035169 1768.57472705 201.32371588 1758.70569832 196.4453125 1749.33984375 C195.61 1747.73109375 195.61 1747.73109375 194.7578125 1746.08984375 C195.0878125 1745.42984375 195.4178125 1744.76984375 195.7578125 1744.08984375 C209.00960331 1756.51909216 219.23943062 1769.67595805 228.7578125 1785.08984375 C229.93449956 1783.32481316 231.10786556 1781.55754657 232.2734375 1779.78515625 C240.28135104 1767.91757267 240.28135104 1767.91757267 246.3828125 1766.46484375 C249.83479667 1767.37326064 250.87613604 1769.13292359 252.7578125 1772.08984375 C253.12908956 1773.41311327 253.47062687 1774.74581499 253.7578125 1776.08984375 C253.93171509 1774.93198364 253.93171509 1774.93198364 254.10913086 1773.75073242 C254.63511078 1770.25918254 255.16516242 1766.76826277 255.6953125 1763.27734375 C255.96891602 1761.45493164 255.96891602 1761.45493164 256.24804688 1759.59570312 C256.42529297 1758.43232422 256.60253906 1757.26894531 256.78515625 1756.0703125 C257.02866821 1754.45999146 257.02866821 1754.45999146 257.27709961 1752.81713867 C257.7578125 1750.08984375 257.7578125 1750.08984375 258.7578125 1747.08984375 C260.9453125 1746.58984375 260.9453125 1746.58984375 263.7578125 1747.08984375 C265.8046464 1749.54246396 267.24442599 1752.28669828 268.7578125 1755.08984375 C269.655 1756.51296875 269.655 1756.51296875 270.5703125 1757.96484375 C271.7578125 1760.08984375 271.7578125 1760.08984375 271.7578125 1762.08984375 C273.72279872 1761.55819818 273.72279872 1761.55819818 275.7578125 1760.08984375 C277.37758701 1756.94850163 277.37758701 1756.94850163 278.6953125 1753.27734375 C280.96340377 1747.28174872 283.36678629 1743.01448025 289.0703125 1739.77734375 C293.83182608 1738.55928214 298.33133716 1738.87851407 303.1328125 1739.58984375 C310.08919713 1740.54934508 316.85388383 1740.290527 323.7578125 1739.08984375 C323.60183594 1739.62351562 323.44585938 1740.1571875 323.28515625 1740.70703125 C321.59178417 1747.18894559 320.61574877 1754.23142613 323.99609375 1760.3203125 C326.25090538 1762.5851233 327.58517266 1762.92311343 330.7578125 1763.08984375 C338.11383861 1761.01860773 343.52338373 1755.87475053 348.9375 1750.73828125 C351.82422059 1748.02748269 354.76996268 1745.48954582 357.8203125 1742.96484375 C359.16802734 1741.84722656 359.16802734 1741.84722656 360.54296875 1740.70703125 C362.7578125 1739.08984375 362.7578125 1739.08984375 364.7578125 1739.08984375 C365.86208679 1740.90741954 366.89039114 1742.77135908 367.8828125 1744.65234375 C371.61584393 1751.2395888 375.67599322 1755.61926892 382.1328125 1759.52734375 C396.90625014 1762.69308039 409.59263034 1755.13153425 421.61328125 1747.44921875 C430.30618825 1741.79942125 438.92888411 1736.04481939 447.53425598 1730.26296997 C453.06774228 1726.54729958 458.61472034 1722.85209371 464.1640625 1719.16015625 C466.01302581 1717.92961359 467.86198411 1716.69906341 469.7109375 1715.46850586 C472.4456777 1713.6485054 475.18055581 1711.82871487 477.91601562 1710.00979614 C494.18956442 1699.18647673 510.34908554 1688.20308411 526.3828125 1677.02734375 C527.34662842 1676.35598389 528.31044434 1675.68462402 529.3034668 1674.99291992 C542.44590638 1665.83039442 555.51143108 1656.57135326 568.48828125 1647.17578125 C572.23396755 1644.46514209 575.99226475 1641.77279652 579.7578125 1639.08984375 C593.72109543 1629.13169041 607.58299737 1619.0403952 621.37548828 1608.84716797 C623.727443 1607.11224585 626.08366089 1605.38329231 628.44140625 1603.65625 C637.67542035 1596.88643648 646.82346992 1590.01596177 655.91479492 1583.05566406 C661.7111962 1578.62579824 667.55722264 1574.27190052 673.4453125 1569.96484375 C680.46094613 1564.82960668 687.35578583 1559.55993156 694.19995117 1554.19873047 C699.00923327 1550.43549492 703.86032488 1546.73742639 708.7578125 1543.08984375 C716.08556895 1537.62879848 723.30070792 1532.03014163 730.50390625 1526.40625 C734.15809713 1523.55342391 737.8281914 1520.72225091 741.5078125 1517.90234375 C746.42174621 1514.1294733 751.30199991 1510.31671705 756.16796875 1506.48242188 C761.86778048 1501.994134 767.59662044 1497.5434746 773.33300781 1493.10205078 C778.26999061 1489.27273808 783.13274212 1485.37517645 787.91015625 1481.34765625 C789.7578125 1480.08984375 789.7578125 1480.08984375 792.7578125 1480.08984375 C792.0978125 1489.65984375 791.4378125 1499.22984375 790.7578125 1509.08984375 C791.54027344 1506.51429687 792.32273437 1503.93875 793.12890625 1501.28515625 C793.88637229 1498.79625616 794.64445006 1496.30754318 795.40258789 1493.81884766 C795.92992154 1492.08662077 796.45661712 1490.35419951 796.98266602 1488.62158203 C797.7380755 1486.13392817 798.49576264 1483.64697801 799.25390625 1481.16015625 C799.48935654 1480.38302277 799.72480682 1479.60588928 799.96739197 1478.8052063 C801.64394079 1473.31758716 801.64394079 1473.31758716 802.7578125 1471.08984375 C804.98475964 1472.16207756 807.01761894 1473.26538864 809.0703125 1474.65234375 C812.44730557 1476.45864237 814.92620488 1476.95771935 818.7578125 1477.08984375 C829.09969084 1473.82398743 833.6860632 1466.67561861 839.27438354 1457.97268677 C841.24964237 1454.90192095 843.26072761 1451.85489818 845.2734375 1448.80859375 C845.66534775 1448.21490494 846.057258 1447.62121613 846.46104431 1447.00953674 C853.87698154 1435.82960033 862.45680634 1425.74677687 871.7578125 1416.08984375 C872.38993652 1415.43048828 873.02206055 1414.77113281 873.67333984 1414.09179688 C885.75954788 1401.55117714 898.31228361 1390.84223998 912.7578125 1381.08984375 C913.4178125 1381.41984375 914.0778125 1381.74984375 914.7578125 1382.08984375 C901.64113034 1417.74419687 886.9409891 1452.72111833 870.7578125 1487.08984375 C870.30891663 1488.04437439 870.30891663 1488.04437439 869.85095215 1489.01818848 C862.84597933 1503.90051667 855.62393289 1518.64270277 847.7578125 1533.08984375 C847.22494629 1534.0732373 846.69208008 1535.05663086 846.14306641 1536.06982422 C836.53945553 1553.74423964 826.34659789 1570.99144981 815.7578125 1588.08984375 C815.19433105 1589.00266113 814.63084961 1589.91547852 814.05029297 1590.85595703 C799.86895384 1613.78048017 784.36296411 1635.8574604 767.7578125 1657.08984375 C766.8772206 1658.22887023 765.99702257 1659.36820131 765.1171875 1660.5078125 C759.94852235 1667.17565046 754.62077074 1673.66866937 749.1003418 1680.04833984 C745.33042369 1684.40564243 741.66741564 1688.83950065 738.03515625 1693.3125 C735.0215212 1696.98779077 731.94368643 1700.60658438 728.86547852 1704.2277832 C724.99764244 1708.7861822 721.20639152 1713.40226958 717.4375 1718.04296875 C715.7578125 1720.08984375 715.7578125 1720.08984375 714.7578125 1721.08984375 C714.54354709 1723.01398958 714.33584013 1724.93911558 714.16308594 1726.86743164 C712.70553189 1742.99693385 709.47295362 1756.20680676 697.2734375 1767.58203125 C688.04856566 1773.11122462 677.5990911 1772.54415444 667.20751953 1772.60107422 C656.66860415 1772.68433594 647.40249317 1773.38926359 638.2578125 1779.08984375 C637.443125 1779.58484375 636.6284375 1780.07984375 635.7890625 1780.58984375 C632.89179374 1782.72936529 631.86043265 1784.48695038 631.2578125 1788.02734375 C631.35367173 1793.00137261 634.04929618 1797.13639018 636.34765625 1801.41796875 C637.7578125 1804.08984375 637.7578125 1804.08984375 638.7578125 1807.08984375 C633.83972489 1805.30792795 629.81587677 1802.62271781 625.4765625 1799.74609375 C615.41924054 1793.61921946 605.84586055 1795.03896491 594.82592773 1797.5743103 C589.43445948 1798.91827904 584.17334144 1800.68213885 578.91870117 1802.47875977 C576.90464511 1803.1662249 574.88547278 1803.83680523 572.86523438 1804.50585938 C566.28863978 1806.38421399 566.28863978 1806.38421399 560.7578125 1810.08984375 C560.7578125 1815.42639661 564.39887513 1819.28559272 567.7578125 1823.08984375 C569.17307621 1824.42067411 570.58896308 1825.75089681 572.01464844 1827.07055664 C583.93093105 1838.22944841 591.39127959 1853.41919994 592.70703125 1869.75 C592.77725736 1872.98580311 592.37861679 1875.91684407 591.7578125 1879.08984375 C587.60556398 1877.49962091 585.07995027 1874.45203273 582.1953125 1871.21484375 C581.13022547 1870.03904698 580.06512089 1868.8632661 579 1867.6875 C578.46213867 1867.08953613 577.92427734 1866.49157227 577.37011719 1865.87548828 C575.82523617 1864.16451618 574.26767615 1862.46642195 572.703125 1860.7734375 C572.21787354 1860.2479834 571.73262207 1859.7225293 571.23266602 1859.18115234 C570.53355103 1858.42439209 570.53355103 1858.42439209 569.8203125 1857.65234375 C566.34600475 1853.88458014 563.01404869 1850.04509308 559.7578125 1846.08984375 C554.92230043 1847.43911936 551.19792054 1849.57694722 547.1953125 1852.52734375 C546.58453857 1852.97343994 545.97376465 1853.41953613 545.34448242 1853.87915039 C529.50936754 1865.5853209 515.17951821 1879.35468842 502.33056641 1894.26977539 C499.60658402 1897.4221021 496.76638093 1900.46527492 493.94140625 1903.52709961 C491.17191497 1906.53465205 488.45214296 1909.57694264 485.7578125 1912.65234375 C482.6795201 1916.12456753 479.45878076 1919.36893273 476.11328125 1922.5859375 C474.84387695 1923.81751587 474.84387695 1923.81751587 473.54882812 1925.07397461 C471.848293 1926.71726179 470.13518415 1928.347663 468.40820312 1929.96313477 C461.05006078 1937.09486131 457.72300206 1942.86366464 457.39457703 1953.24871826 C457.3481295 1957.0730966 457.42339789 1960.8914988 457.5078125 1964.71484375 C457.52791642 1966.3072691 457.54616029 1967.89971908 457.5625 1969.4921875 C457.60616956 1973.35869064 457.67497732 1977.22398951 457.7578125 1981.08984375 C456.53263916 1981.0741333 455.30746582 1981.05842285 454.04516602 1981.04223633 C449.46613227 1980.98761954 444.88712689 1980.95337886 440.30786133 1980.92504883 C438.33222601 1980.91003419 436.35662361 1980.88961624 434.38110352 1980.86352539 C431.52872555 1980.82681803 428.67679121 1980.81004382 425.82421875 1980.796875 C424.95197159 1980.78139114 424.07972443 1980.76590729 423.18104553 1980.74995422 C416.10935062 1980.74804704 410.14245192 1982.20948851 403.9453125 1985.65234375 C395.44548484 1995.12358029 396.61703105 2008.73923705 396.6953125 2020.58984375 C396.69982422 2021.88921875 396.70433594 2023.18859375 396.70898438 2024.52734375 C396.7207033 2027.714892 396.73711031 2030.9023433 396.7578125 2034.08984375 C382.23100041 2031.2716224 374.72245973 2023.7012866 366.04516602 2012.1730957 C365.62033936 2011.60937256 365.1955127 2011.04564941 364.7578125 2010.46484375 C364.33749756 2009.90692139 363.91718262 2009.34899902 363.48413086 2008.77416992 C359.47869113 2003.55012148 355.14497844 1998.21889906 348.7578125 1996.08984375 C342.06640462 1995.59308175 335.81382479 1996.40512967 329.296875 1997.84765625 C328.42622406 1998.03319061 327.55557312 1998.21872498 326.65853882 1998.40988159 C324.82385848 1998.80344446 322.99025224 1999.20204545 321.15771484 1999.60546875 C318.42691078 2000.20515966 315.69253595 2000.78546206 312.95703125 2001.36328125 C303.86116681 2003.31484152 294.87358006 2005.50656926 285.953125 2008.15234375 C284.75763535 2008.50439377 284.75763535 2008.50439377 283.53799438 2008.86355591 C275.92519129 2011.19178182 268.8315398 2014.46723795 261.7578125 2018.08984375 C261.98404297 2019.41628906 261.98404297 2019.41628906 262.21484375 2020.76953125 C262.67495443 2023.58315772 263.10374727 2026.38473182 263.4453125 2029.21484375 C263.55230469 2030.04242187 263.65929688 2030.87 263.76953125 2031.72265625 C263.75584267 2034.48774843 263.33641424 2035.82637171 261.7578125 2038.08984375 C258.39878457 2040.52092104 255.17904832 2040.32668809 251.1328125 2040.27734375 C249.41191406 2040.26767578 249.41191406 2040.26767578 247.65625 2040.2578125 C246.36976562 2040.20238281 245.08328125 2040.14695312 243.7578125 2040.08984375 C243.01281494 2040.09250244 242.26781738 2040.09516113 241.50024414 2040.09790039 C233.56339123 2039.81685825 228.06528247 2036.26599785 221.4453125 2032.15234375 C219.14382735 2030.76786946 216.83248099 2029.40037248 214.51953125 2028.03515625 C213.94564667 2027.69497971 213.37176208 2027.35480316 212.78048706 2027.00431824 C198.92229362 2018.84085259 184.24988194 2012.41295352 168.7578125 2008.08984375 C167.54351563 2007.75082031 166.32921875 2007.41179687 165.078125 2007.0625 C149.01807298 2003.24955548 129.40555474 2002.9126086 113.9140625 2009.25390625 C105.75933592 2011.41369769 97.01768101 2007.98010189 89.12002563 2005.88070679 C48.48133569 1995.15727193 7.03663807 1991.85888566 -34.8671875 1991.83984375 C-35.53505783 1991.83940189 -36.20292816 1991.83896004 -36.89103699 1991.83850479 C-86.67870911 1991.82131407 -136.24659664 1996.22729929 -185.56811523 2002.92163086 C-191.86254852 2003.76080126 -197.89130025 2004.27304242 -204.2421875 2004.08984375 C-204.23695068 2003.3534668 -204.23171387 2002.61708984 -204.22631836 2001.85839844 C-204.20551883 1998.5188889 -204.19251782 1995.17939301 -204.1796875 1991.83984375 C-204.17130859 1990.68097656 -204.16292969 1989.52210937 -204.15429688 1988.328125 C-204.15107422 1987.21308594 -204.14785156 1986.09804687 -204.14453125 1984.94921875 C-204.13929443 1983.92280273 -204.13405762 1982.89638672 -204.12866211 1981.83886719 C-204.22881799 1979.41358719 -204.54295672 1977.40287014 -205.2421875 1975.08984375 C-205.9021875 1975.08984375 -206.5621875 1975.08984375 -207.2421875 1975.08984375 C-207.8403125 1975.87359375 -208.4384375 1976.65734375 -209.0546875 1977.46484375 C-212.22020187 1981.263461 -216.07202017 1982.44856993 -220.9296875 1982.96484375 C-228.67194478 1982.79005175 -234.00408204 1978.00334992 -240.07421875 1973.6953125 C-268.50900834 1953.54046939 -300.78907047 1938.1225918 -331.79156494 1922.33764648 C-338.87397827 1918.73143847 -345.95368925 1915.11995839 -353.03112793 1911.5039978 C-355.58087395 1910.20277182 -358.13260634 1908.90551183 -360.68457031 1907.60864258 C-362.30673581 1906.78094824 -363.92880708 1905.95306921 -365.55078125 1905.125 C-366.74121033 1904.52157524 -366.74121033 1904.52157524 -367.95568848 1903.90596008 C-372.20114832 1901.73324399 -376.35450019 1899.46396068 -380.45800781 1897.03271484 C-389.83512922 1891.51461323 -396.90880419 1887.4182453 -408.1171875 1888.58984375 C-410.34193003 1888.6963308 -412.56725609 1888.79120277 -414.79296875 1888.875 C-416.42032959 1888.94871826 -416.42032959 1888.94871826 -418.08056641 1889.02392578 C-441.35145501 1889.50911033 -465.66655883 1881.38808668 -486.2421875 1871.08984375 C-488.00949219 1870.22552734 -488.00949219 1870.22552734 -489.8125 1869.34375 C-499.35676658 1864.45880032 -507.81230835 1858.37141822 -515.6171875 1851.02734375 C-533.71413991 1834.59936887 -557.9942693 1830.01983426 -581.62109375 1829.87890625 C-583.58538389 1829.85801372 -585.54967401 1829.83710328 -587.51395321 1829.81520653 C-592.31432953 1829.76254426 -597.1147078 1829.71805594 -601.9152832 1829.68847656 C-631.6389553 1829.49490633 -631.6389553 1829.49490633 -643.2421875 1826.08984375 C-644.02134521 1825.86586914 -644.80050293 1825.64189453 -645.60327148 1825.41113281 C-685.27338844 1812.86624712 -713.31152947 1783.20193859 -732.2421875 1747.08984375 C-732.57283203 1746.47189941 -732.90347656 1745.85395508 -733.24414062 1745.21728516 C-745.53043067 1721.98202987 -751.73295744 1695.96864218 -756.77832031 1670.36962891 C-759.85925275 1654.80045092 -764.37337486 1640.7905465 -777.94921875 1631.171875 C-782.3226414 1628.59675481 -785.86843595 1627.03241712 -790.92773438 1626.52368164 C-792.14052063 1626.39879112 -792.14052063 1626.39879112 -793.37780762 1626.27137756 C-793.99305298 1626.21147141 -794.60829834 1626.15156525 -795.2421875 1626.08984375 C-795.76051147 1624.54889038 -795.76051147 1624.54889038 -796.28930664 1622.97680664 C-822.02827854 1546.56932061 -853.19096996 1472.84421067 -886.20068359 1399.32739258 C-898.13310852 1372.74894408 -909.98341855 1346.1357104 -921.55886841 1319.3994751 C-922.49756223 1317.23196717 -923.43767409 1315.06507268 -924.37936401 1312.89886475 C-929.01441345 1302.22891382 -933.55372753 1291.53467782 -937.73046875 1280.67578125 C-938.2131723 1279.42970093 -938.2131723 1279.42970093 -938.70562744 1278.15844727 C-946.46095919 1257.65324805 -947.32336657 1236.47135821 -947.3671875 1214.77734375 C-947.37407593 1212.88326782 -947.37407593 1212.88326782 -947.38110352 1210.95092773 C-947.36853312 1203.28046994 -947.01797975 1195.72141282 -946.2421875 1188.08984375 C-945.0871875 1188.41984375 -943.9321875 1188.74984375 -942.7421875 1189.08984375 C-937.17743294 1190.45645309 -932.47454607 1190.84800327 -926.9296875 1188.96484375 C-923.48096027 1186.55875498 -922.53448769 1185.11033324 -921.2421875 1181.08984375 C-920.48791566 1172.38428964 -922.0137518 1163.92775809 -923.6171875 1155.40234375 C-923.74745331 1154.69965363 -923.87771912 1153.9969635 -924.01193237 1153.27297974 C-932.1114494 1109.9253299 -944.92630363 1067.63772766 -962.2421875 1027.08984375 C-962.71446777 1025.97996094 -963.18674805 1024.87007812 -963.67333984 1023.7265625 C-974.84059907 997.66324374 -987.38590762 972.17932549 -1000.5703125 947.08203125 C-1001.25383789 945.77830566 -1001.25383789 945.77830566 -1001.95117188 944.44824219 C-1003.08952291 942.36872801 -1004.32095091 940.40284172 -1005.6015625 938.41015625 C-1008.60656826 932.32859698 -1007.21793075 925.98405207 -1005.97460938 919.51977539 C-1005.69448686 918.02750113 -1005.41459117 916.53518428 -1005.1348877 915.04283142 C-1004.98479752 914.2558531 -1004.83470734 913.46887478 -1004.68006897 912.65804863 C-1001.60765476 896.47804536 -998.95487892 880.24851732 -996.5234375 863.9609375 C-996.36870972 862.92739765 -996.21398193 861.8938578 -996.05456543 860.82899857 C-994.78283668 852.32691534 -993.52432154 843.82288978 -992.26824951 835.31848145 C-985.6070157 790.23352111 -985.6070157 790.23352111 -981.515625 768.15234375 C-981.37735794 767.4053163 -981.23909088 766.65828884 -981.09663391 765.88862419 C-970.08613586 706.74810689 -954.53549729 646.23562185 -918.2421875 597.08984375 C-917.82759277 596.52507324 -917.41299805 595.96030273 -916.98583984 595.37841797 C-904.23547144 578.12019042 -889.61391355 562.39791555 -874.4921875 547.21484375 C-873.69997803 546.41796143 -872.90776855 545.6210791 -872.09155273 544.80004883 C-867.92517719 540.64500561 -863.67992207 536.65700855 -859.22070312 532.81884766 C-855.67447354 529.71983508 -852.28158302 526.4575047 -848.8671875 523.21484375 C-843.53545201 518.17330207 -838.17364829 513.17985305 -832.69921875 508.29296875 C-825.03061707 501.41682988 -817.50239037 494.43290384 -810.27734375 487.08984375 C-808.37302743 485.21842349 -806.41028657 483.49437247 -804.3671875 481.77734375 C-799.38618987 477.49526081 -795.09792348 472.58943779 -790.71728516 467.71337891 C-789.23759091 466.08478461 -787.73513503 464.48096758 -786.22265625 462.8828125 C-769.73283469 445.42984988 -759.68046596 427.74120926 -752.1796875 404.96484375 C-743.01587596 377.19743733 -728.51208119 361.19768295 -708.0147593 340.72809005 C-705.51729163 338.23318978 -703.02230501 335.7358101 -700.52690125 333.23884583 C-696.34386379 329.05400063 -692.15874849 324.87124218 -687.97241211 320.68969727 C-683.15178289 315.87452225 -678.33478548 311.05573656 -673.51962978 306.23508853 C-669.35810933 302.06901399 -665.19462339 297.90491124 -661.02952069 293.74241811 C-658.55352813 291.26797389 -656.07819075 288.7928844 -653.60463905 286.31599998 C-650.84908143 283.55698741 -648.08940628 280.80211565 -645.3293457 278.04760742 C-644.5244722 277.24070969 -643.71959869 276.43381195 -642.89033508 275.60246277 C-638.72024332 271.44782724 -634.47670794 267.44927005 -629.99925518 263.62660694 C-627.10163042 261.09229189 -624.43124385 258.34154241 -621.7421875 255.58984375 C-617.79202077 251.59516016 -613.81622678 247.73142177 -609.53125 244.09375 C-606.1937337 241.17199938 -602.97602697 238.12542813 -599.7421875 235.08984375 C-594.65520712 230.32431552 -589.54565822 225.61482336 -584.2421875 221.08984375 C-583.20941694 220.20337947 -582.17688822 219.3166334 -581.14453125 218.4296875 C-579.36611946 216.90214176 -577.58647944 215.37613651 -575.80322266 213.85424805 C-572.72009351 211.22273795 -569.65205394 208.57720419 -566.61328125 205.89453125 C-548.29576026 189.78882402 -532.50907219 183.92967396 -508.2421875 185.08984375 C-503.2329349 185.50813582 -498.23876498 186.04213531 -493.2421875 186.58984375 C-477.16376679 188.34609734 -461.34582429 188.95693207 -445.2421875 187.08984375 C-445.1390625 186.09082031 -445.0359375 185.09179688 -444.9296875 184.0625 C-444.33552201 179.95388688 -442.93061632 176.30092837 -441.2421875 172.52734375 C-440.93531006 171.83624512 -440.62843262 171.14514648 -440.31225586 170.43310547 C-427.20348502 141.86480041 -402.42867727 117.84228851 -373.2421875 106.08984375 C-361.72435458 101.95555849 -350.67705404 99.91069233 -338.4296875 99.90234375 C-337.49576172 99.89009766 -336.56183594 99.87785156 -335.59960938 99.86523438 C-330.02904117 99.85363708 -324.94559265 100.36360597 -319.5246582 101.66503906 C-309.96366046 103.44449527 -302.13991365 99.42548176 -294.4375 94.1796875 C-291.30803986 91.89277432 -288.25829081 89.52283991 -285.2421875 87.08984375 C-284.7167334 86.66880371 -284.1912793 86.24776367 -283.64990234 85.81396484 C-274.87477439 78.71584955 -266.88668324 70.9085105 -258.98999023 62.85205078 C-252.83735966 56.58786259 -246.45007244 50.71972705 -239.5546875 45.27734375 C-238.84957031 44.71402344 -238.14445313 44.15070313 -237.41796875 43.5703125 C-232.38208798 40.14374371 -228.19416578 39.42851283 -222.2421875 40.08984375 C-219.74524159 42.23634111 -218.4179295 43.94395405 -217.91137695 47.24682617 C-217.81098662 49.81026363 -217.84479066 52.33845933 -217.9296875 54.90234375 C-217.94418945 56.19881836 -217.94418945 56.19881836 -217.95898438 57.52148438 C-218.02823299 61.51080673 -218.23487735 65.42645062 -218.7578125 69.3828125 C-219.16720852 72.51601271 -219.34845383 75.4386678 -219.3046875 78.58984375 C-219.29115234 79.87375 -219.29115234 79.87375 -219.27734375 81.18359375 C-219.26574219 81.81265625 -219.25414062 82.44171875 -219.2421875 83.08984375 C-218.74074219 82.6515625 -218.23929688 82.21328125 -217.72265625 81.76171875 C-204.56474431 70.73328148 -189.34759316 62.32296725 -174.28564453 54.19970703 C-172.44715846 53.20116967 -170.62297954 52.17639726 -168.80078125 51.1484375 C-134.6962005 32.21901203 -97.02166951 19.48209531 -60.50523376 6.12957764 C-54.6001518 3.96663887 -48.7127281 1.76196975 -42.8359375 -0.4765625 C-40.77594725 -1.25518907 -38.71549083 -2.03256471 -36.65478516 -2.80929565 C-34.79872327 -3.51370004 -32.94808435 -4.23234223 -31.09765625 -4.95141602 C-30.00066406 -5.36319092 -28.90367187 -5.77496582 -27.7734375 -6.19921875 C-26.37448242 -6.73603271 -26.37448242 -6.73603271 -24.94726562 -7.28369141 C-16.71763871 -9.18957793 -6.91552074 -4.07432487 0 0 Z M-848.2421875 1293.08984375 C-848.2421875 1296.59150297 -847.39949599 1297.98372459 -845.72265625 1301.02734375 C-845.19478516 1302.00574219 -844.66691406 1302.98414063 -844.12304688 1303.9921875 C-843.00998719 1306.02830361 -841.8929141 1308.06223184 -840.77148438 1310.09375 C-835.83871752 1319.26570679 -833.22799389 1327.93423731 -832.3046875 1338.27734375 C-831.66396562 1344.23640736 -830.70841231 1349.12240186 -827.2421875 1354.08984375 C-826.5615625 1355.10046875 -825.8809375 1356.11109375 -825.1796875 1357.15234375 C-820.16064866 1362.85721398 -812.24070597 1367.21865669 -805.2421875 1370.08984375 C-804.5821875 1369.75984375 -803.9221875 1369.42984375 -803.2421875 1369.08984375 C-803.68046875 1368.46464844 -804.11875 1367.83945313 -804.5703125 1367.1953125 C-812.40436828 1355.30092293 -817.61280631 1342.12372458 -823.2421875 1329.08984375 C-830.89815387 1308.62771768 -830.89815387 1308.62771768 -845.2421875 1293.08984375 C-846.2321875 1293.08984375 -847.2221875 1293.08984375 -848.2421875 1293.08984375 Z M-876.97265625 1299.3125 C-879.03318413 1302.19723903 -879.18573957 1304.59007188 -879.2421875 1308.08984375 C-877.58718406 1310.82147643 -877.58718406 1310.82147643 -874.9921875 1313.15234375 C-870.23409209 1317.9909711 -866.0397717 1323.02436346 -861.91113281 1328.40649414 C-859.81133575 1331.13134166 -857.70875328 1333.69403099 -855.2421875 1336.08984375 C-856.74630001 1328.62650285 -858.86865874 1321.39464479 -861.12841797 1314.13061523 C-861.74782944 1312.13415894 -862.35651984 1310.1346244 -862.96484375 1308.13476562 C-863.35873172 1306.86047806 -863.7532401 1305.58638207 -864.1484375 1304.3125 C-864.50228516 1303.16531494 -864.85613281 1302.01812988 -865.22070312 1300.83618164 C-866.06120242 1297.99333359 -866.06120242 1297.99333359 -868.2421875 1296.08984375 C-872.4877576 1296.08984375 -873.67836836 1296.8355291 -876.97265625 1299.3125 Z " fill="#FFFFFF" transform="translate(1007.2421875,108.91015625)"/>
<path d="M0 0 C0.67011108 0.04323395 1.34022217 0.0864679 2.03063965 0.13101196 C89.40811618 5.91458826 180.23270329 47.07365481 271.25 110.25 C272.07298584 110.88373535 272.07298584 110.88373535 272.91259766 111.53027344 C285.12084753 120.95406485 296.85778905 130.85150216 308.25 141.25 C309.16007812 142.06726563 310.07015625 142.88453125 311.0078125 143.7265625 C321.23812022 152.97476068 331.55255649 162.49287926 340.41015625 173.0859375 C341.92295188 174.8653192 343.47061389 176.57797135 345.05859375 178.2890625 C353.82365538 187.86625261 360.67541906 198.24707599 367.44091797 209.30126953 C369.87015359 213.26082524 372.34025885 217.19420124 374.80908203 221.12915039 C376.69889485 224.14317341 378.58280886 227.16080246 380.46484375 230.1796875 C384.22188048 236.20605577 387.98537648 242.22836911 391.75 248.25 C393.00002926 250.24998171 394.25002926 252.24998172 395.5 254.25 C396.428125 255.735 396.428125 255.735 397.375 257.25 C439.25 324.25 481.125 391.25 523 458.25 C523.61907227 459.2404834 524.23814453 460.2309668 524.87597656 461.25146484 C526.12283846 463.24650885 527.36958372 465.24162575 528.61621094 467.23681641 C531.78825947 472.31325476 534.96248029 477.38831313 538.140625 482.4609375 C544.00595096 491.82627683 549.85937942 501.19784592 555.625 510.625 C556.08358398 511.37442871 556.54216797 512.12385742 557.01464844 512.89599609 C559.59222089 517.12429473 561.32427055 520.09934737 561.94403076 524.98651123 C562.13719376 526.48909485 562.13719376 526.48909485 562.33425903 528.02203369 C562.54150101 529.67933502 562.54150101 529.67933502 562.75292969 531.37011719 C562.97518723 533.1131311 562.97518723 533.1131311 563.20193481 534.89135742 C563.61013321 538.10100679 564.01488585 541.31106583 564.41760159 544.52140713 C564.67266395 546.55315951 564.92871531 548.58478483 565.18509674 550.61637115 C566.0895858 557.78444579 566.98990123 564.95303198 567.88671875 572.12207031 C568.61566704 577.94837192 569.3506971 583.77386461 570.09179688 589.59863281 C578.60278561 656.51787017 584.77474545 722.72323275 584.25 790.25 C585.85517085 789.50264484 587.45428542 788.74227411 589.05078125 787.9765625 C589.94192627 787.55455566 590.83307129 787.13254883 591.7512207 786.69775391 C595.77940158 784.36388849 597.84510053 781.1464628 600.25 777.25 C611.59605312 759.11157875 611.59605312 759.11157875 621.25 755.25 C622.24 755.25 623.23 755.25 624.25 755.25 C622.8048699 762.81616964 620.37936165 769.94061892 617.85507202 777.20050049 C596.30028476 839.55558166 589.71826494 905.863915 584.25 971.25 C583.59 970.92 582.93 970.59 582.25 970.25 C581.45439798 967.73888112 580.81535972 965.31607446 580.25 962.75 C579.98944824 961.56784912 579.98944824 961.56784912 579.72363281 960.36181641 C576.45479883 944.40095254 575.57046036 927.51276904 576.25 911.25 C576.30365723 909.83799316 576.30365723 909.83799316 576.35839844 908.39746094 C577.23948451 887.41217736 579.6910276 866.62479045 582.21728516 845.78417969 C582.35017944 844.67874817 582.48307373 843.57331665 582.61999512 842.43438721 C582.8715115 840.3489071 583.12673867 838.26386989 583.38635254 836.17938232 C583.99265214 831.15942349 584.3894829 826.3064746 584.25 821.25 C583.81429687 821.78109375 583.37859375 822.3121875 582.9296875 822.859375 C574.62730871 832.70721824 574.62730871 832.70721824 567.75 833.8125 C563.37229966 833.10894102 560.95406439 831.65743374 558.25 828.25 C553.83889582 821.4507184 553.73765248 813.96926065 553.66479492 806.11474609 C553.56610218 800.74784587 552.94428553 796.94892748 550.25 792.25 C547.88062271 790.21638717 547.88062271 790.21638717 545 788.6875 C510.41573763 767.08280341 488.19258354 726.0937559 469.75 691.0625 C469.01136719 689.66511597 469.01136719 689.66511597 468.2578125 688.23950195 C466.88233445 685.59374903 465.55249485 682.93237307 464.25 680.25 C463.60502563 678.94107788 463.60502563 678.94107788 462.94702148 677.60571289 C461.0603867 673.44062499 460.11106044 671.11723711 460.84765625 666.51953125 C461.33105469 665.37871094 461.81445312 664.23789062 462.3125 663.0625 C462.81619608 661.7789992 463.31209927 660.49241704 463.80078125 659.203125 C464.05037598 658.55408203 464.2999707 657.90503906 464.55712891 657.23632812 C472.74486599 633.76366114 471.38149886 604.84086169 461.25 582.25 C454.34205547 568.81176622 444.97011483 558.34972018 432.25 550.25 C415.97553686 539.54419786 401.70558692 527.51245061 393.3984375 509.46875 C393.05749054 508.73514252 392.71654358 508.00153503 392.36526489 507.24569702 C388.56353115 498.93811513 385.30896632 490.43430324 382.125 481.875 C381.82151642 481.06373657 381.51803284 480.25247314 381.20535278 479.41662598 C369.01358649 446.79991153 360.93462567 415.39296788 364.25 380.25 C363.70698242 380.52150879 363.16396484 380.79301758 362.60449219 381.07275391 C361.84297852 381.45351074 361.08146484 381.83426758 360.296875 382.2265625 C359.03544678 382.85763916 359.03544678 382.85763916 357.74853516 383.50146484 C355.90523873 384.42262186 354.06115271 385.34220045 352.21630859 386.26025391 C348.37146675 388.17556102 344.53766102 390.09752044 340.7421875 392.109375 C328.65388011 398.49937945 315.03903602 403.1534422 301.45703125 399.125 C296.41130886 397.10131775 292.18914227 393.99039756 287.8125 390.8125 C286.93996582 390.18996338 286.06743164 389.56742676 285.16845703 388.92602539 C283.3799207 387.64968298 281.59377223 386.36998765 279.81005859 385.08691406 C276.78616415 382.91718473 273.74212628 380.77738415 270.69506836 378.64038086 C263.40947551 373.52697562 256.18765795 368.32765128 248.97998047 363.10522461 C243.92894855 359.4497434 238.85024775 355.83643509 233.75 352.25 C225.62802481 346.53648728 217.57506114 340.73052298 209.53369141 334.90429688 C205.69120888 332.12081798 201.8459003 329.34125401 198 326.5625 C197.24726807 326.01859619 196.49453613 325.47469238 195.71899414 324.91430664 C190.67942745 321.27544547 185.62691568 317.65530673 180.56396484 314.04907227 C176.6567344 311.26320693 172.76725305 308.45367808 168.88256836 305.63647461 C160.02541507 299.21606816 151.09277576 292.91149513 142.12109375 286.65234375 C137.65242783 283.53456759 133.19863654 280.39626383 128.75 277.25 C89.59735922 249.59010854 49.92524037 222.63074962 9.25 197.25 C8.29416016 196.65348633 7.33832031 196.05697266 6.35351562 195.44238281 C-7.3589067 186.90388086 -21.13542318 178.46661943 -35.14868164 170.42871094 C-36.36749813 169.72877306 -37.58616821 169.02858016 -38.8046875 168.328125 C-39.39940353 167.98642273 -39.99411957 167.64472046 -40.6068573 167.29266357 C-44.36119316 165.11487453 -47.97906495 162.79500461 -51.5703125 160.359375 C-65.89217043 150.92537632 -78.33816309 149.74330878 -94.95507812 149.44398499 C-138.55869359 148.47771378 -185.20105393 129.52703441 -215.75 98.25 C-226.90254314 86.32090941 -231.40329218 75.09808661 -231.08203125 58.94140625 C-230.57514039 48.61376582 -226.29871983 40.70655864 -219.140625 33.40625 C-202.91239007 18.76901849 -181.96522866 20.19744614 -161.375 20 C-160.21154053 19.9786499 -159.04808105 19.9572998 -157.84936523 19.93530273 C-147.9646215 19.89666576 -138.40132214 21.20339542 -129.75 26.25 C-129.4715625 24.7959375 -129.4715625 24.7959375 -129.1875 23.3125 C-126.6649788 14.5369685 -118.80282629 7.13818246 -111.06469727 2.71508789 C-104.98823888 0.17223434 -98.22687044 0.64834326 -91.74609375 0.51953125 C-90.26177452 0.48011791 -88.77748575 0.43954248 -87.29322815 0.39787292 C-83.38436202 0.2916153 -79.47527994 0.20263852 -75.56591797 0.11688232 C-72.43746083 0.04535042 -69.30939713 -0.03856567 -66.18126869 -0.12310982 C-20.82556223 -1.3479022 -20.82556223 -1.3479022 0 0 Z " fill="#FFFFFF" transform="translate(1375.75,166.75)"/>
<path d="M0 0 C3.30116435 2.94475288 6.4848774 5.9980158 9.62109375 9.1171875 C10.10707031 9.59913574 10.59304688 10.08108398 11.09375 10.57763672 C30.44786556 30.0438163 42.51880303 55.21932353 48.49609375 81.8046875 C48.69936279 82.69349609 48.90263184 83.58230469 49.11206055 84.49804688 C52.01130782 98.35014557 51.83027404 110.79616435 49.36019897 124.59344482 C46.65067737 139.82871322 44.72456709 155.0863004 43.30859375 170.4921875 C43.22791656 171.35648376 43.14723938 172.22078003 43.06411743 173.11126709 C42.53945204 178.77673342 42.06611765 184.44496049 41.62109375 190.1171875 C41.51651855 191.3846582 41.41194336 192.65212891 41.30419922 193.95800781 C40.20803934 209.31208984 40.37515605 224.73157017 40.37109375 240.1171875 C40.37065189 240.88388638 40.37021004 241.65058525 40.36975479 242.44051743 C40.36221125 267.43845896 40.8725079 292.24818942 43.62109375 317.1171875 C43.71537659 317.97252075 43.80965942 318.827854 43.90679932 319.70910645 C45.55987442 334.55132312 47.21732474 349.42289493 49.86195374 364.12564087 C51.34099921 372.40735216 51.9401693 380.24317842 51.68359375 388.6796875 C51.27239185 418.73099367 58.07402397 449.53555632 79.40209961 471.90429688 C80.79497682 473.32193955 82.20792852 474.71976784 83.62109375 476.1171875 C84.48476562 476.99117187 85.3484375 477.86515625 86.23828125 478.765625 C106.78291053 498.57869478 136.40403123 507.5680135 164.52661133 507.41748047 C191.69299085 506.7831125 219.54754574 497.9856884 239.62109375 479.1171875 C240.52988281 478.29863281 241.43867187 477.48007813 242.375 476.63671875 C263.480169 456.7643969 272.39618923 429.43415409 274.62109375 401.1171875 C274.62109375 393.5271875 274.62109375 385.9371875 274.62109375 378.1171875 C291.12109375 378.1171875 307.62109375 378.1171875 324.62109375 378.1171875 C322.27355648 399.24502289 322.27355648 399.24502289 320.49609375 405.9921875 C320.28436523 406.81041992 320.07263672 407.62865234 319.85449219 408.47167969 C309.56941838 446.38613601 285.3199028 478.61050233 251.40478516 498.41113281 C233.07663916 508.85205495 214.30672554 515.18016596 193.62109375 519.1171875 C192.94079102 519.24996094 192.26048828 519.38273437 191.55957031 519.51953125 C148.63238699 527.50807138 100.85336362 516.76099775 64.83081055 492.38891602 C57.16213293 486.96510333 50.36681106 480.62965041 43.62109375 474.1171875 C42.64076172 473.23160156 42.64076172 473.23160156 41.640625 472.328125 C18.48727712 450.87965547 3.0303639 413.28890116 1.62109375 382.1171875 C1.95572918 373.31650873 3.21913114 364.69109174 4.60534668 356.00485229 C6.86281448 341.73323151 8.52302282 327.43930653 9.87109375 313.0546875 C9.99504013 311.74535751 9.99504013 311.74535751 10.12149048 310.40957642 C10.360579 307.86331215 10.59390194 305.31660297 10.82421875 302.76953125 C10.890681 302.04645782 10.95714325 301.3233844 11.02561951 300.57839966 C12.21381505 287.01740929 12.77644427 273.50804149 12.75390625 259.8984375 C12.75458302 258.41971826 12.75555612 256.94099914 12.75680542 255.46228027 C12.75826119 252.40029821 12.75619494 249.33834575 12.75146484 246.27636719 C12.74572798 242.37550797 12.74908489 238.47471699 12.75503731 234.57386017 C12.75866628 231.53506971 12.75749432 228.49629523 12.75490952 225.45750427 C12.7542488 224.01915987 12.75503826 222.58081395 12.75738907 221.14247131 C12.76687845 213.71912257 12.6394847 206.47549195 11.62109375 199.1171875 C11.00105469 199.78363281 10.38101562 200.45007813 9.7421875 201.13671875 C-1.40360051 212.73677469 -14.09838242 221.71929696 -28.37890625 229.1171875 C-29.02553223 229.45347168 -29.6721582 229.78975586 -30.33837891 230.13623047 C-54.91953946 242.73148699 -81.60210423 248.34268564 -109.12890625 248.3671875 C-109.81287476 248.36786224 -110.49684326 248.36853699 -111.20153809 248.36923218 C-155.19263126 248.30064433 -196.59703953 232.73573553 -228.37890625 202.1171875 C-229.08402344 201.47523438 -229.78914062 200.83328125 -230.515625 200.171875 C-254.34872129 177.83741154 -269.26064881 141.33699811 -271.37890625 109.1171875 C-272.09515442 70.22912514 -252.87342608 33.3249261 -226.50390625 5.9296875 C-167.7771393 -51.22486679 -61.72248334 -53.53937487 0 0 Z M-195.9375 12.45703125 C-217.86777544 37.71547857 -222.97199772 69.64593246 -222.77001953 102.05566406 C-222.75391415 105.11568742 -222.76999261 108.17439071 -222.7890625 111.234375 C-222.82622557 145.7332879 -215.4949188 178.0665969 -190.62890625 203.3671875 C-169.01022315 224.6145352 -139.97881401 235.22221926 -109.87890625 235.4921875 C-82.60143138 235.21986195 -56.52037835 226.42066928 -35.37890625 209.1171875 C-34.72664062 208.61703125 -34.074375 208.116875 -33.40234375 207.6015625 C-19.87324338 196.85241426 -10.34190832 180.04901204 -4.37890625 164.1171875 C-3.99992188 163.12847656 -3.6209375 162.13976562 -3.23046875 161.12109375 C2.61657023 144.21743595 3.1230219 125.81233942 3.01220703 108.10327148 C2.99608017 105.05211862 3.01219733 102.00228601 3.03125 98.95117188 C3.06857207 64.37861115 -4.31172205 32.01127674 -29.31640625 6.7421875 C-34.62969509 1.54743936 -39.94258018 -3.11247136 -46.37890625 -6.8828125 C-47.01860352 -7.2638916 -47.65830078 -7.6449707 -48.31738281 -8.03759766 C-95.95535141 -36.02893676 -158.36200953 -28.96249916 -195.9375 12.45703125 Z " fill="#FFFFFF" transform="translate(973.37890625,599.8828125)"/>
<path d="M0 0 C2.39357819 -0.00216766 4.78667983 -0.02032629 7.18017578 -0.03930664 C34.89809249 -0.14157428 65.42181376 3.49149908 86.57861328 23.18920898 C103.26488737 41.2629632 106.62293281 67.06439458 106.53979492 90.69360352 C106.53991546 91.81488585 106.54003599 92.93616817 106.54016018 94.09142876 C106.53941928 97.68784508 106.53182887 101.28420829 106.52392578 104.88061523 C106.52245381 107.11425756 106.52143467 109.34790023 106.52087402 111.58154297 C106.51565073 119.82446818 106.50168946 128.06738599 106.48876953 136.31030273 C106.46814453 154.74905273 106.44751953 173.18780273 106.42626953 192.18530273 C53.95626953 192.18530273 1.48626953 192.18530273 -52.57373047 192.18530273 C-52.44998047 211.67592773 -52.32623047 231.16655273 -52.19873047 251.24780273 C-52.16473145 257.37608643 -52.13073242 263.50437012 -52.09570312 269.81835938 C-52.05574318 275.36657899 -52.05574318 275.36657899 -52.01327515 280.91477966 C-51.99572183 283.36409805 -51.98185981 285.81344474 -51.97103882 288.26280212 C-52.70256356 321.1033386 -52.70256356 321.1033386 -39.57373047 350.18530273 C-26.82436967 362.59915403 -6.60466905 362.60864018 10.05126953 362.39624023 C22.33914618 362.04329059 36.05336716 360.12538291 45.35595703 351.36889648 C61.33160474 331.69738997 57.6094004 298.78980498 57.98876953 275.18530273 C58.03205947 272.65665123 58.07567671 270.12800531 58.11962891 267.59936523 C58.22621867 261.46140363 58.32609943 255.32338573 58.42626953 249.18530273 C74.26626953 249.18530273 90.10626953 249.18530273 106.42626953 249.18530273 C106.46751953 257.00217773 106.50876953 264.81905273 106.55126953 272.87280273 C106.56947754 275.29197021 106.58768555 277.7111377 106.60644531 280.20361328 C106.74716731 312.30223626 104.87406179 347.29811495 81.69970703 371.93530273 C61.48155036 391.9450248 30.13590966 393.47748368 3.36676025 393.43167114 C-25.58652027 393.2705918 -57.15192234 390.37768716 -79.25341797 369.66186523 C-100.03511351 347.48072891 -101.04978221 312.18108239 -100.96191406 283.5847168 C-100.96599221 281.31513722 -100.97134097 279.04555964 -100.97784424 276.77598572 C-100.99137285 270.6832483 -100.98628056 264.59066544 -100.97670698 258.49792576 C-100.96903833 252.08290291 -100.97617544 245.66789209 -100.98086548 239.25286865 C-100.98664738 227.80405468 -100.97740935 216.35531884 -100.96208747 204.90651712 C-100.9486757 194.56532934 -100.95102884 184.22424262 -100.96484375 173.88305664 C-100.98096305 161.8116246 -100.98684104 149.74027164 -100.97800696 137.66882682 C-100.97335679 131.30141258 -100.97263217 124.93406766 -100.98261642 118.56665802 C-100.99134903 112.58114327 -100.98515035 106.59581751 -100.96793365 100.61032295 C-100.96400291 98.42801539 -100.96504345 96.24569162 -100.97172165 94.06339073 C-101.04027119 69.3664046 -98.92632504 42.16345849 -80.91357422 23.43139648 C-65.66818124 8.79683728 -45.98010976 3.91403681 -25.57373047 1.18530273 C-24.86651855 1.08741455 -24.15930664 0.98952637 -23.43066406 0.88867188 C-15.6462102 -0.04463003 -7.8281969 -0.00078929 0 0 Z M-38.57373047 43.18530273 C-39.11642578 43.67514648 -39.65912109 44.16499023 -40.21826172 44.66967773 C-51.08980519 55.78892726 -52.7552725 74.39830245 -52.68725586 89.19335938 C-52.68737639 90.05680434 -52.68749693 90.92024931 -52.68762112 91.80985928 C-52.68688185 94.57175316 -52.67929911 97.33357736 -52.67138672 100.09545898 C-52.66991424 101.81384244 -52.66889542 103.53222635 -52.66833496 105.25061035 C-52.66311753 111.58301471 -52.64915629 117.91540942 -52.63623047 124.24780273 C-52.61560547 138.41717773 -52.59498047 152.58655273 -52.57373047 167.18530273 C-15.94373047 167.18530273 20.68626953 167.18530273 58.42626953 167.18530273 C58.48814453 148.25155273 58.48814453 148.25155273 58.55126953 128.93530273 C58.56947754 124.99302734 58.58768555 121.05075195 58.60644531 116.98901367 C58.61314617 113.36355763 58.61314617 113.36355763 58.61715698 109.73809814 C58.6201694 108.15979881 58.62707586 106.58150318 58.63742065 105.00323486 C58.69476998 95.76803147 58.42601455 86.655579 57.5234375 77.4597168 C57.44363207 76.64396053 57.36382664 75.82820427 57.28160286 74.98772812 C55.88818066 62.03629995 52.55432831 49.08009803 42.30126953 40.31030273 C22.48272637 26.36513577 -20.46425407 26.41877627 -38.57373047 43.18530273 Z " fill="#FFFFFF" transform="translate(829.57373046875,1294.814697265625)"/>
<path d="M0 0 C2.61720941 0.00314947 5.23327173 -0.02036504 7.8503418 -0.0456543 C34.32126691 -0.14505071 63.63313312 3.92832821 83.38354492 23.19067383 C84.06545898 23.89192383 84.74737305 24.59317383 85.44995117 25.31567383 C86.27172852 26.08911133 86.27172852 26.08911133 87.11010742 26.87817383 C107.82084619 48.08597033 107.60378172 84.44988456 107.59521484 111.9152832 C107.59821354 113.85207178 107.60161768 115.78885976 107.60539246 117.72564697 C107.61416602 122.94927223 107.6165678 128.17288107 107.61720824 133.39651299 C107.61792272 136.67224672 107.62006455 139.94797639 107.62270546 143.22370911 C107.63193809 154.68665834 107.63604311 166.149596 107.63525391 177.61254883 C107.63465422 188.24040108 107.64519006 198.8682024 107.66099757 209.49604177 C107.67414415 218.66687044 107.67943481 227.83768261 107.6787985 237.0085206 C107.67854552 242.4651459 107.68128423 247.9217259 107.69197655 253.37834167 C107.70177783 258.51996364 107.70165587 263.66149812 107.69445992 268.80312347 C107.69342871 270.67091248 107.69568763 272.53870729 107.70182037 274.40648651 C107.80149786 306.91706661 105.90203263 343.21235927 82.59838867 368.25708008 C62.54675393 387.47019191 32.1789395 390.89130551 5.6887207 390.70678711 C2.95107242 390.69068042 0.21489958 390.70676121 -2.52270508 390.72583008 C-29.50580986 390.75861305 -57.40105032 386.12376695 -77.82348633 367.21020508 C-100.11993553 344.49522184 -101.69560312 308.58737321 -101.71118164 278.75561523 C-101.71581711 276.67971714 -101.72084274 274.60381988 -101.72622681 272.52792358 C-101.73928492 266.91164189 -101.74578314 261.29537211 -101.75023746 255.67907763 C-101.75317962 252.16031138 -101.75728658 248.6415483 -101.76174164 245.12278366 C-101.77540087 234.08471971 -101.78507452 223.04666311 -101.78894353 212.00859129 C-101.79341681 199.32059099 -101.81093746 186.63269881 -101.83994412 173.94473135 C-101.86165463 164.10222237 -101.87165283 154.25974358 -101.87298465 144.41721094 C-101.87402623 138.55533639 -101.87979459 132.69356369 -101.89780426 126.83171463 C-101.91444723 121.30762861 -101.91636288 115.78371922 -101.90766525 110.25961685 C-101.9069034 108.24950177 -101.91112268 106.23937654 -101.9211235 104.22928619 C-102.0506279 76.54165558 -99.19635457 45.38985524 -78.87817383 24.51879883 C-67.98339133 14.2089711 -56.42503098 8.37319289 -42.05004883 4.50317383 C-41.32825439 4.30828369 -40.60645996 4.11339355 -39.86279297 3.91259766 C-26.67831637 0.62119295 -13.51450666 -0.03382071 0 0 Z M-39.19067383 44.86645508 C-54.90355529 61.49195339 -53.70157621 89.24096666 -53.6953125 110.46435547 C-53.69830876 112.49586041 -53.70171236 114.52736477 -53.70549011 116.55886841 C-53.71428826 122.05305511 -53.7166665 127.54722621 -53.7173059 133.04141927 C-53.71801895 136.48243765 -53.72015812 139.92345212 -53.72280312 143.36446953 C-53.73204374 155.39337285 -53.73613974 167.42226512 -53.73535156 179.45117188 C-53.7347516 190.62378777 -53.74529083 201.79635526 -53.76109523 212.96895891 C-53.77421902 222.59316389 -53.77953341 232.21735314 -53.77889615 241.84156698 C-53.77864252 247.5753296 -53.78141843 253.30904919 -53.7920742 259.04280281 C-53.80183661 264.44291567 -53.80177922 269.84294507 -53.79455757 275.24306107 C-53.79352167 277.21089362 -53.79581452 279.17873159 -53.80191803 281.14655495 C-53.92495766 316.36241787 -53.92495766 316.36241787 -38.55004883 347.06567383 C-31.43210154 353.630003 -21.09024388 358.08933496 -11.55004883 359.31567383 C-10.48077148 359.4780957 -10.48077148 359.4780957 -9.38989258 359.64379883 C6.20197138 361.73371357 25.52488623 360.91581567 38.76245117 351.56567383 C52.27696901 340.32226791 56.83664167 325.44744338 58.44995117 308.31567383 C58.58540467 305.17244423 58.59362095 302.03402847 58.59039307 298.88819885 C58.59336419 297.97047524 58.59633531 297.05275163 58.59939647 296.10721821 C58.6080307 293.04852019 58.60958724 289.98986156 58.61108398 286.93115234 C58.615716 284.73098162 58.62074117 282.5308117 58.62612915 280.3306427 C58.6392206 274.36322345 58.64569207 268.39581543 58.65013981 262.42838407 C58.65307656 258.69408026 58.65718256 254.95977949 58.66164398 251.22547722 C58.67531204 239.52426293 58.68499706 227.82305505 58.68884587 216.12183338 C58.68928932 214.77734856 58.68973588 213.43286373 58.69018555 212.08837891 C58.69040698 211.42148326 58.69062841 210.75458761 58.69085655 210.067483 C58.69479797 199.2803457 58.71223425 188.49327623 58.73554507 177.70616508 C58.75934672 166.60119733 58.77146778 155.4962577 58.77288699 144.39126343 C58.77393114 138.16841619 58.77975521 131.94566465 58.7977066 125.72284126 C58.81428665 119.86147157 58.8162949 114.0002685 58.8075676 108.13888359 C58.80680244 105.99969916 58.81107021 103.8605054 58.82102585 101.72134399 C58.91147416 81.05791365 58.20912656 58.23710365 42.79370117 42.63989258 C22.14118569 23.7240659 -19.4191547 26.177662 -39.19067383 44.86645508 Z " fill="#FFFFFF" transform="translate(1095.550048828125,1295.684326171875)"/>
<path d="M0 0 C15.50754014 12.95335706 21.48725631 31.20281605 24.32421875 50.56640625 C24.44361816 51.37891846 24.56301758 52.19143066 24.68603516 53.02856445 C26.96360817 69.8961186 26.77879875 86.83598904 26.75278437 103.81955218 C26.7484174 107.40348977 26.74993067 110.98742586 26.75068665 114.57136536 C26.75120796 120.76274553 26.7481024 126.95411506 26.74244881 133.14549255 C26.73428029 142.09690051 26.73171313 151.04830339 26.73046082 159.99971467 C26.72827866 174.52699368 26.72164135 189.05426703 26.7121582 203.58154297 C26.70296238 217.6834307 26.69589219 231.7853169 26.69165039 245.88720703 C26.69138767 246.75819316 26.69112494 247.62917929 26.69085426 248.52655894 C26.68954911 252.89656165 26.68828543 257.26656438 26.68704236 261.63656712 C26.67669581 297.82151764 26.65882284 334.00646113 26.63671875 370.19140625 C10.46671875 370.19140625 -5.70328125 370.19140625 -22.36328125 370.19140625 C-22.3713681 366.41395966 -22.37945496 362.63651306 -22.38778687 358.74459839 C-22.46292917 324.07067424 -22.54783561 289.39678495 -22.64333286 254.72291069 C-22.65585109 250.17448624 -22.66828397 245.62606155 -22.68066406 241.07763672 C-22.68313006 240.17216217 -22.68559605 239.26668763 -22.68813677 238.33377446 C-22.72781441 223.69009341 -22.76058381 209.04640468 -22.79078107 194.40270136 C-22.82194186 179.36666579 -22.86057092 164.33066264 -22.90607131 149.29466355 C-22.93389316 140.02351889 -22.95595339 130.75239784 -22.97054376 121.48122276 C-22.98112052 115.11572471 -22.99897931 108.75027247 -23.02244829 102.384809 C-23.03575858 98.71732921 -23.04596969 95.04991337 -23.04749489 91.38240814 C-23.04923834 87.39351763 -23.06637392 83.40483341 -23.08480835 79.41598511 C-23.08190625 77.70288235 -23.08190625 77.70288235 -23.07894552 75.95517147 C-23.18720444 60.19483021 -24.71705071 43.79052612 -36.28125 32.0546875 C-45.63262998 23.68581649 -57.98389906 20.63751011 -70.36328125 20.19140625 C-71.40742187 20.13984375 -72.4515625 20.08828125 -73.52734375 20.03515625 C-90.39709133 19.57818792 -104.90745297 22.97054057 -118.04296875 33.96484375 C-125.16161133 40.79586441 -132.93258578 52.40810482 -133.49389178 62.55173081 C-133.49654982 63.49229807 -133.49920786 64.43286533 -133.50194645 65.40193462 C-133.50742089 66.4877604 -133.51289534 67.57358617 -133.51853567 68.69231576 C-133.51951378 69.8897712 -133.52049189 71.08722665 -133.52149963 72.32096863 C-133.52643761 73.58943313 -133.53137559 74.85789764 -133.5364632 76.16480047 C-133.55006281 79.69250705 -133.55746793 83.22020397 -133.56388986 86.74792993 C-133.5718858 90.54956024 -133.58558635 94.35117042 -133.59860229 98.15278625 C-133.62037649 104.7416286 -133.63851753 111.33047297 -133.65420723 117.9193325 C-133.67689727 127.4457761 -133.7050413 136.9721974 -133.73452651 146.4986221 C-133.78221304 161.95374279 -133.82547435 177.40887258 -133.8659668 192.86401367 C-133.90531632 207.87932036 -133.94674125 222.89461895 -133.9909668 237.90991211 C-133.99369107 238.83509257 -133.99641534 239.76027303 -133.99922217 240.71348926 C-134.01290156 245.35473954 -134.02662185 249.99598971 -134.04036248 254.63723981 C-134.15434393 293.15527863 -134.26087749 331.67333504 -134.36328125 370.19140625 C-150.20328125 370.19140625 -166.04328125 370.19140625 -182.36328125 370.19140625 C-182.36328125 245.12140625 -182.36328125 120.05140625 -182.36328125 -8.80859375 C-169.16328125 -8.80859375 -155.96328125 -8.80859375 -142.36328125 -8.80859375 C-139.92578125 7.00390625 -139.92578125 7.00390625 -139.16235352 11.98364258 C-138.86155884 13.92146606 -138.86155884 13.92146606 -138.5546875 15.8984375 C-138.40042297 16.9118219 -138.40042297 16.9118219 -138.24304199 17.94567871 C-137.79619458 20.80731296 -137.28158216 23.43650351 -136.36328125 26.19140625 C-135.88761719 25.08345703 -135.88761719 25.08345703 -135.40234375 23.953125 C-127.48776653 6.74657176 -114.04891578 -3.28650756 -96.77661133 -9.91210938 C-67.19339629 -20.73873624 -25.87814916 -19.80426952 0 0 Z " fill="#FFFFFF" transform="translate(1455.36328125,1310.80859375)"/>
<path d="M0 0 C16.17 0 32.34 0 49 0 C49 137.94 49 275.88 49 418 C90.58 418 132.16 418 175 418 C175 429.55 175 441.1 175 453 C117.25 453 59.5 453 0 453 C0 303.51 0 154.02 0 0 Z " fill="#FFFFFF" transform="translate(518,1228)"/>
</svg>
